<svg width="180" height="80" viewBox="0 0 180 80" xmlns="http://www.w3.org/2000/svg">
  <!-- Cartoon Cloud Icon (Scaled much wider) -->
  <g transform="translate(20, 5) scale(2.0, 1.4)">
      <path d="M70.5,30.5 C70.5,23.9 65.1,18.5 58.5,18.5 C57.7,18.5 57,18.6 56.2,18.8 C54.5,13.6 49.6,10 44,10 C36.3,10 30,16.3 30,24 C30,24.6 30,25.1 30.1,25.7 C24.8,27.1 21,31.9 21,37.5 C21,43.8 26.2,49 32.5,49 L68,49 C74.9,49 80.5,43.4 80.5,36.5 C80.5,30.3 76.1,25.1 70.5,23.9 L70.5,30.5 Z" fill="#FD3D57" transform="translate(-20, -5)"/>
  </g>
  
  <!-- Text SORA (Centered inside, White, Extra Bold) -->
  <text x="90" y="49" dominant-baseline="middle" text-anchor="middle" font-family="'Arial Black', 'Arial', sans-serif" font-weight="900" font-size="24" letter-spacing="1" fill="#FFFFFF">SORA</text>
</svg>
